<svg width="240" height="280" viewBox="0 0 240 280" fill="none" xmlns="http://www.w3.org/2000/svg">
  <defs>
    <linearGradient id="organicBody" x1="120" y1="44" x2="120" y2="248" gradientUnits="userSpaceOnUse">
      <stop stop-color="#E5E9CA"/>
      <stop offset="1" stop-color="#CDD59E"/>
    </linearGradient>
    <filter id="organicShadow" x="22" y="20" width="196" height="244" filterUnits="userSpaceOnUse" color-interpolation-filters="sRGB">
      <feDropShadow dx="0" dy="16" stdDeviation="9" flood-color="#4B5930" flood-opacity="0.24"/>
    </filter>
  </defs>
  <g filter="url(#organicShadow)">
    <rect x="34" y="50" width="172" height="198" rx="30" fill="url(#organicBody)"/>
    <rect x="26" y="32" width="188" height="28" rx="12" fill="#84945B"/>
    <rect x="64" y="86" width="112" height="114" rx="24" fill="#FBFDEB" stroke="#A7B56C" stroke-width="2"/>
    <path d="M120 110C130 110 138 118 138 128C138 138 130 146 120 146C110 146 102 138 102 128C102 118 110 110 120 110Z" fill="#7EA152"/>
    <path d="M120 146V168" stroke="#607F3F" stroke-width="6" stroke-linecap="round"/>
    <path d="M120 112C122 102 130 98 138 98C136 106 128 112 120 112Z" fill="#A8C773"/>
    <path d="M108 150H132" stroke="#5B7441" stroke-width="4" stroke-linecap="round"/>
    <rect x="82" y="210" width="76" height="22" rx="11" fill="#6C7D46"/>
    <text x="120" y="225" text-anchor="middle" fill="#F8FFEA" font-size="11" font-family="Arial, sans-serif" font-weight="700">ORGANIC</text>
  </g>
</svg>
